<svg width="75" height="104" viewBox="0 0 75 104" fill="none" xmlns="http://www.w3.org/2000/svg">
<path d="M69.8361 51C72.2799 54.7883 73.8993 58.9887 74.6017 63.361C75.3041 67.7334 75.0758 72.192 73.9299 76.482C72.7839 80.772 70.7428 84.8094 67.9231 88.3632C65.1034 91.9171 61.5604 94.9178 57.4967 97.194C53.4365 99.4696 48.9355 100.977 44.2506 101.63C39.5658 102.283 34.7889 102.07 30.1927 101.001C25.5965 99.9322 21.271 98.0295 17.4632 95.4016C13.6553 92.7737 10.4397 89.4719 8 85.6849" stroke="#E2FBFF" stroke-width="2.83" stroke-miterlimit="10"/>
<path d="M70.1664 53C67.7217 49.2117 66.1016 45.0111 65.3987 40.6384C64.6958 36.2657 64.9239 31.8066 66.07 27.5162C67.2161 23.2258 69.2576 19.1882 72.078 15.6342C74.8983 12.0802 78.442 9.07957 82.5066 6.80388C90.7064 2.20954 100.527 0.841085 109.809 2.99949C119.09 5.15789 127.073 10.6664 132 18.3135" stroke="#E2FBFF" stroke-width="2.83" stroke-miterlimit="10"/>
<path d="M1 85.1407L7.80594 85.8788L9.43781 78.9004" stroke="#E2FBFF" stroke-width="2.83" stroke-miterlimit="10"/>
<path d="M56.1323 55.0867C52.9 49.6859 47.6633 45.7953 41.5741 44.2707C35.4849 42.746 29.0417 43.7121 23.6619 46.9564C20.998 48.5637 18.6756 50.682 16.8272 53.1905C14.9788 55.6989 13.6407 58.5483 12.8892 61.576C12.1377 64.6037 11.9876 67.7504 12.4475 70.8363C12.9074 73.9222 13.9682 76.887 15.5694 79.5612C17.1698 82.2355 19.2792 84.5671 21.7773 86.4227C24.2753 88.2784 27.113 89.6218 30.1283 90.3763C33.1435 91.1308 36.2773 91.2815 39.3506 90.8199C42.4238 90.3582 45.3764 89.2933 48.0397 87.6859C50.7034 86.0792 53.0257 83.9613 54.8741 81.4534C56.7224 78.9454 58.0605 76.0965 58.812 73.0692C59.5635 70.042 59.7136 66.8958 59.2538 63.8103C58.794 60.7248 57.7333 57.7605 56.1323 55.0867ZM41.3006 74.2995H31.0193V72.2474L36.2713 67.2708C37.4743 66.1189 37.686 65.42 37.686 64.7546C37.686 63.681 36.9508 63.0771 35.5083 63.0771C34.9633 63.0564 34.4216 63.1699 33.9303 63.4077C33.4391 63.6455 33.0133 64.0004 32.6901 64.4415L30.4011 62.9597C31.4481 61.4164 33.3529 60.4211 35.8035 60.4211C38.8333 60.4211 40.855 61.9811 40.855 64.4582C40.855 65.789 40.4875 66.9968 38.5827 68.775L35.4526 71.7385H41.3006V74.2995Z" fill="#E2FBFF"/>
</svg>
