<svg width="87" height="104" viewBox="0 0 87 104" fill="none" xmlns="http://www.w3.org/2000/svg">
<g opacity="0.1">
<path d="M24.8825 51.3779C27.136 55.1382 28.6292 59.3074 29.277 63.6473C29.9247 67.9872 29.7142 72.4128 28.6575 76.671C27.6008 80.9292 25.7186 84.9366 23.1184 88.4641C20.5183 91.9916 17.2512 94.9701 13.504 97.2294C9.75994 99.4882 5.60944 100.984 1.28943 101.633C-3.03058 102.281 -7.43551 102.069 -11.6738 101.008C-15.9121 99.9473 -19.9008 98.0588 -23.4121 95.4503C-26.9234 92.8419 -29.8886 89.5646 -32.1383 85.8056" stroke="#FC3055" stroke-width="2.83" stroke-miterlimit="10"/>
<path d="M25.6231 52.6195C23.3689 48.8595 21.875 44.6902 21.2269 40.3501C20.5788 36.01 20.7891 31.5843 21.8459 27.3258C22.9026 23.0674 24.7851 19.0599 27.3857 15.5325C29.9862 12.005 33.2538 9.02675 37.0016 6.76804C44.5625 2.20798 53.618 0.849732 62.1762 2.99203C70.7345 5.13433 78.0948 10.6017 82.6383 18.1918" stroke="#FC3055" stroke-width="2.83" stroke-miterlimit="10"/>
<path d="M76.5621 18.242L83.3681 18.98L84.9999 11.9961" stroke="#FC3055" stroke-width="2.83" stroke-miterlimit="10"/>
<path d="M74.2511 23.3457C72.6502 20.6712 70.5402 18.3395 68.0417 16.4838C65.5432 14.6281 62.705 13.2846 59.6893 12.5302C56.6736 11.7757 53.5394 11.625 50.4656 12.0867C47.3919 12.5484 44.4389 13.6135 41.7752 15.221C39.1115 16.8278 36.7892 18.9456 34.9408 21.4536C33.0925 23.9615 31.7544 26.8105 31.0029 29.8377C30.2514 32.8649 30.1013 36.0111 30.5611 39.0966C31.0209 42.1821 32.0816 45.1464 33.6827 47.8203C36.915 53.221 42.1516 57.1116 48.2408 58.6363C54.3301 60.1609 60.7732 59.1949 66.153 55.9505C71.5316 52.7033 75.4059 47.4449 76.9244 41.331C78.4429 35.2171 77.4814 28.7481 74.2511 23.3457ZM56.902 42.4132H53.7497V31.2914H51.0373V28.7528H56.9076L56.902 42.4132Z" fill="#FC3055"/>
</g>
</svg>
