<svg width="271" height="116" viewBox="0 0 271 116" fill="none" xmlns="http://www.w3.org/2000/svg">
<path d="M7.62939e-06 116C7.62939e-06 92.6592 18.0654 73.7333 40.3478 73.7333C62.6303 73.7333 80.6957 92.6544 80.6957 116H7.62939e-06Z" fill="#2B2B2B"/>
<path d="M7.62939e-06 4.19617e-05L7.62939e-06 41.1725L80.6957 41.1725V4.19617e-05L7.62939e-06 4.19617e-05Z" fill="#FC3055"/>
<path d="M0.00123596 41.0718L6.12514 79.0719L80.6062 66.5706L0.00123596 41.0718Z" fill="#FD792E"/>
<path d="M148.404 12.6087V24.1711H113.807V31.9406H137.682V41.4345H113.804V49.2071H148.401V60.7462H98.6956V12.6087H148.404Z" fill="#2B2B2B"/>
<path d="M205.001 12.6088V24.1712L176.946 49.1978H205.001V60.7462H155.295V49.1978L184.046 24.1712H155.295V12.6088H205.001Z" fill="#2B2B2B"/>
<path d="M224.923 12.6088C229.796 17.6297 239.68 27.533 239.68 27.533L254.44 12.6088H270.174L247.269 38.0557V60.7462H232.162V38.0557L209.048 12.6088H224.923Z" fill="#2B2B2B"/>
<path d="M98.6987 68.3026H124.378C125.75 68.2943 127.11 68.5552 128.38 69.0703C129.649 69.5853 130.802 70.3442 131.773 71.3029C132.743 72.2616 133.511 73.4011 134.032 74.6552C134.553 75.9094 134.817 77.2533 134.809 78.6089C134.816 80.2518 134.422 81.8721 133.661 83.3328C132.9 84.7935 131.794 86.0517 130.437 87.001C133.169 88.327 135.006 91.1721 135.006 94.5588V102.652H123.927V95.5393C123.927 92.0063 123.63 89.9939 119.407 89.8461H109.482V102.658H98.7019L98.6987 68.3026ZM121.153 82.7334C123.043 82.7334 124.63 80.721 124.63 78.8066C124.63 76.9389 123.04 74.8798 121.153 74.8798H109.528V82.7334H121.153Z" fill="#2B2B2B"/>
<path d="M157.953 68.3027H169.529L189.252 102.658H176.437L173.209 96.7192H154.326L151.048 102.658H138.23L157.953 68.3027ZM169.578 89.9458L163.765 79.297H163.714L157.953 89.9473H169.578V89.9458Z" fill="#2B2B2B"/>
<path d="M227.795 88.9652C226.357 98.8295 218.012 103.391 207.829 103.391C196.75 103.391 187.709 97.3058 187.709 85.4306C187.709 73.5554 196.75 67.5166 207.829 67.5166C217.963 67.5166 226.308 71.9819 227.75 81.7996H216.82C215.627 77.5288 212.051 75.8604 207.829 75.8604C202.712 75.8604 198.534 79.0992 198.534 85.4789C198.534 91.8102 202.707 95.0989 207.829 95.0989C212.101 95.0989 215.728 93.3324 216.87 88.9636H227.795V88.9652Z" fill="#2B2B2B"/>
<path d="M243.05 68.3027V82.1436L258.401 68.3027H269.629L254.08 83.4199L270.174 102.658H259.393L247.868 89.4057L243.049 94.0188V102.658H232.268V68.3027H243.05Z" fill="#2B2B2B"/>
</svg>
