<svg width="235" height="100" viewBox="0 0 235 100" fill="none" xmlns="http://www.w3.org/2000/svg">
<path d="M1.52588e-05 99.9999C1.52588e-05 79.8786 15.5736 63.5632 34.7826 63.5632C53.9916 63.5632 69.5652 79.8745 69.5652 99.9999H1.52588e-05Z" fill="#FFFDFC"/>
<path d="M1.52588e-05 4.57764e-05L1.52588e-05 35.4935L69.5652 35.4935V4.57764e-05L1.52588e-05 4.57764e-05Z" fill="#FC3055"/>
<path d="M0.00107574 35.4068L5.2803 68.1654L69.4881 57.3884L0.00107574 35.4068Z" fill="#FD792E"/>
<path d="M129.809 10.8696V20.8371H99.9835V27.535H120.566V35.7194H99.9808V42.4199H129.806V52.3674H86.9565V10.8696H129.809Z" fill="#FFFDFC"/>
<path d="M178.599 10.8696V20.8372L154.414 42.4119H178.599V52.3674H135.749V42.4119L160.535 20.8372H135.749V10.8696H178.599Z" fill="#FFFDFC"/>
<path d="M195.774 10.8696C199.974 15.198 208.495 23.7353 208.495 23.7353L221.219 10.8696H234.783L215.037 32.8066V52.3674H202.014V32.8066L182.088 10.8696H195.774Z" fill="#FFFDFC"/>
<path d="M86.9592 58.8815H109.096C110.279 58.8744 111.452 59.0993 112.546 59.5433C113.641 59.9873 114.635 60.6415 115.471 61.468C116.308 62.2945 116.97 63.2768 117.419 64.3579C117.868 65.4391 118.096 66.5976 118.088 67.7663C118.094 69.1825 117.755 70.5793 117.099 71.8386C116.443 73.0978 115.49 74.1825 114.32 75.0008C116.675 76.144 118.258 78.5966 118.258 81.5162V88.4931H108.708V82.3614C108.708 79.3158 108.451 77.5809 104.812 77.4535H96.2555V88.4984H86.9619L86.9592 58.8815ZM106.316 71.3218C107.946 71.3218 109.314 69.587 109.314 67.9367C109.314 66.3266 107.943 64.5516 106.316 64.5516H96.2948V71.3218H106.316Z" fill="#FFFDFC"/>
<path d="M138.04 58.8816H148.02L165.022 88.4985H153.975L151.192 83.3786H134.914L132.088 88.4985H121.038L138.04 58.8816ZM148.062 77.5394L143.05 68.3594H143.007L138.04 77.5408H148.062V77.5394Z" fill="#FFFDFC"/>
<path d="M198.249 76.6941C197.01 85.1979 189.816 89.1304 181.037 89.1304C171.487 89.1304 163.692 83.8843 163.692 73.6471C163.692 63.4098 171.487 58.204 181.037 58.204C189.774 58.204 196.967 62.0533 198.21 70.5169H188.788C187.759 66.8352 184.677 65.3969 181.037 65.3969C176.626 65.3969 173.024 68.189 173.024 73.6887C173.024 79.1467 176.622 81.9818 181.037 81.9818C184.72 81.9818 187.846 80.4589 188.831 76.6928H198.249V76.6941Z" fill="#FFFDFC"/>
<path d="M211.4 58.8816V70.8134L224.633 58.8816H234.313L220.908 71.9136L234.783 88.4985H225.489L215.553 77.0739L211.399 81.0507V88.4985H202.105V58.8816H211.4Z" fill="#FFFDFC"/>
</svg>
