<svg width="201" height="38" viewBox="0 0 201 38" fill="none" xmlns="http://www.w3.org/2000/svg">
<path d="M0 37.4111C0 29.8836 5.945 23.7861 13.2787 23.7861C20.6125 23.7861 26.5575 29.8886 26.5575 37.4111H0Z" fill="#FFFDFC"/>
<path d="M0.00146484 5.91278e-05L0.00146484 13.2788L26.559 13.2788V5.91278e-05L0.00146484 5.91278e-05Z" fill="#FC3055"/>
<path d="M0 13.2461L2.01624 25.5011L26.5275 21.4698L0 13.2461Z" fill="#FD792E"/>
<path d="M56.4764 9.3584V13.9259H42.9652V16.9996H52.2902V20.7496H42.9652V23.8221H56.4764V28.3884H37.0664V9.3584H56.4764Z" fill="#FFFDFC"/>
<path d="M78.576 9.3584V13.9259L67.6248 23.8209H78.5798V28.3871H59.166V23.8209L70.3935 13.9259H59.166V9.3584H78.576Z" fill="#FFFDFC"/>
<path d="M86.3562 9.3584C88.2587 11.3434 92.1187 15.2584 92.1187 15.2584L97.8824 9.3584H104.026L95.0824 19.4171V28.3884H89.1824V19.4171L80.1587 9.3584H86.3562Z" fill="#FFFDFC"/>
<path d="M106.445 9.3584H120.5C121.71 9.35863 122.889 9.74314 123.866 10.4565C124.843 11.1698 125.568 12.175 125.937 13.3272C126.306 14.4795 126.3 15.7191 125.918 16.8673C125.537 18.0155 124.801 19.013 123.817 19.7159C125.317 20.4496 126.317 22.0259 126.317 23.9021V28.3871H120.25V24.4459C120.25 22.4884 120.088 21.3734 117.777 21.2921H112.345V28.3884H106.445V9.3584ZM118.733 17.3521C119.765 17.3521 120.635 16.2371 120.635 15.1771C120.635 14.1434 119.76 13.0021 118.733 13.0021H112.375V17.3521H118.733Z" fill="#FFFDFC"/>
<path d="M138.875 9.3584H145.209L156 28.3884H148.985L147.219 25.0996H136.889L135.095 28.3884H128.08L138.875 9.3584ZM145.235 21.3471L142.055 15.4484H142.028L138.875 21.3471H145.235Z" fill="#FFFDFC"/>
<path d="M177.091 20.8036C176.304 26.2686 171.736 28.7961 166.164 28.7961C160.101 28.7961 155.154 25.4211 155.154 18.8473C155.154 12.2736 160.101 8.9248 166.164 8.9248C171.709 8.9248 176.276 11.3986 177.065 16.8361H171.084C170.431 14.4711 168.474 13.5473 166.164 13.5473C163.364 13.5473 161.08 15.3411 161.08 18.8748C161.08 22.3823 163.364 24.2036 166.164 24.2036C168.501 24.2036 170.486 23.2248 171.111 20.8048H177.091V20.8036Z" fill="#FFFDFC"/>
<path d="M185.438 9.3584V17.0246L193.839 9.3584H199.983L191.474 17.7334L200.281 28.3896H194.381L188.074 21.0496L185.438 23.6046V28.3896H179.538V9.3584H185.438Z" fill="#FFFDFC"/>
</svg>
