<svg width="16" height="16" viewBox="0 0 16 16" fill="none" xmlns="http://www.w3.org/2000/svg">
<ellipse cx="8" cy="8.66699" rx="2" ry="2" stroke="#FFFDFC"/>
<path d="M6.66667 13.3333H9.33334C11.206 13.3333 12.1423 13.3333 12.8149 12.8838C13.106 12.6893 13.356 12.4393 13.5506 12.1481C14 11.4755 14 10.5392 14 8.66659C14 6.79398 13.9999 5.85782 13.5505 5.18522C13.3559 4.89405 13.1059 4.64405 12.8148 4.44949C12.1422 4.00008 11.2059 4.00008 9.33324 4.00008H6.66657C4.79396 4.00008 3.85765 4.00008 3.18505 4.44949C2.89388 4.64405 2.64388 4.89405 2.44932 5.18522C2.00001 5.85767 2.00001 6.79356 2.00001 8.66536L2.00001 8.66659C2.00001 10.5392 2.00001 11.4755 2.44942 12.1481C2.64398 12.4393 2.89398 12.6893 3.18515 12.8838C3.85775 13.3333 4.79406 13.3333 6.66667 13.3333Z" stroke="#FFFDFC"/>
<path d="M12 6.66699H11.6667" stroke="#FFFDFC" stroke-linecap="round"/>
<path d="M9.66665 2.33301H6.33331" stroke="#FFFDFC" stroke-linecap="round"/>
</svg>
