<svg width="153" height="131" viewBox="0 0 153 131" fill="none" xmlns="http://www.w3.org/2000/svg">
<g opacity="0.5">
<circle cx="77" cy="52" r="52" fill="#E9E9E9"/>
<g filter="url(#filter0_dd_667_11793)">
<path d="M78.6 16C67.8273 16 58.2978 21.3233 52.4987 29.4829C50.605 29.0363 48.6301 28.8 46.6 28.8C32.4615 28.8 21 40.2615 21 54.4C21 68.5385 32.4615 80 46.6 80L110.6 80C122.971 80 133 69.9712 133 57.6C133 45.2288 122.971 35.2 110.6 35.2C109.721 35.2 108.854 35.2506 108.002 35.349C103.098 23.9677 91.7797 16 78.6 16Z" fill="#FFFDFC"/>
<ellipse cx="46.6" cy="54.4" rx="25.6" ry="25.6" fill="url(#paint0_linear_667_11793)"/>
<circle cx="78.6001" cy="48" r="32" fill="url(#paint1_linear_667_11793)"/>
<ellipse cx="110.6" cy="57.5999" rx="22.4" ry="22.4" fill="url(#paint2_linear_667_11793)"/>
</g>
<circle cx="22" cy="19" r="5" fill="#E9E9E9"/>
<circle cx="19" cy="109" r="7" fill="#E9E9E9"/>
<circle cx="146" cy="35" r="7" fill="#E9E9E9"/>
<circle cx="135" cy="8" r="4" fill="#E9E9E9"/>
<g filter="url(#filter1_b_667_11793)">
<rect x="53" y="68" width="48" height="48" rx="24" fill="#2B2B2B"/>
<path d="M86 101L82.5001 97.5M85 91.5C85 96.1944 81.1944 100 76.5 100C71.8056 100 68 96.1944 68 91.5C68 86.8056 71.8056 83 76.5 83C81.1944 83 85 86.8056 85 91.5Z" stroke="#E9E9E9" stroke-width="2" stroke-linecap="round" stroke-linejoin="round"/>
</g>
</g>
<defs>
<filter id="filter0_dd_667_11793" x="1" y="16" width="152" height="104" filterUnits="userSpaceOnUse" color-interpolation-filters="sRGB">
<feFlood flood-opacity="0" result="BackgroundImageFix"/>
<feColorMatrix in="SourceAlpha" type="matrix" values="0 0 0 0 0 0 0 0 0 0 0 0 0 0 0 0 0 0 127 0" result="hardAlpha"/>
<feMorphology radius="4" operator="erode" in="SourceAlpha" result="effect1_dropShadow_667_11793"/>
<feOffset dy="8"/>
<feGaussianBlur stdDeviation="4"/>
<feColorMatrix type="matrix" values="0 0 0 0 0.0627451 0 0 0 0 0.0941176 0 0 0 0 0.156863 0 0 0 0.03 0"/>
<feBlend mode="normal" in2="BackgroundImageFix" result="effect1_dropShadow_667_11793"/>
<feColorMatrix in="SourceAlpha" type="matrix" values="0 0 0 0 0 0 0 0 0 0 0 0 0 0 0 0 0 0 127 0" result="hardAlpha"/>
<feMorphology radius="4" operator="erode" in="SourceAlpha" result="effect2_dropShadow_667_11793"/>
<feOffset dy="20"/>
<feGaussianBlur stdDeviation="12"/>
<feColorMatrix type="matrix" values="0 0 0 0 0.0627451 0 0 0 0 0.0941176 0 0 0 0 0.156863 0 0 0 0.08 0"/>
<feBlend mode="normal" in2="effect1_dropShadow_667_11793" result="effect2_dropShadow_667_11793"/>
<feBlend mode="normal" in="SourceGraphic" in2="effect2_dropShadow_667_11793" result="shape"/>
</filter>
<filter id="filter1_b_667_11793" x="45" y="60" width="64" height="64" filterUnits="userSpaceOnUse" color-interpolation-filters="sRGB">
<feFlood flood-opacity="0" result="BackgroundImageFix"/>
<feGaussianBlur in="BackgroundImageFix" stdDeviation="4"/>
<feComposite in2="SourceAlpha" operator="in" result="effect1_backgroundBlur_667_11793"/>
<feBlend mode="normal" in="SourceGraphic" in2="effect1_backgroundBlur_667_11793" result="shape"/>
</filter>
<linearGradient id="paint0_linear_667_11793" x1="26.9429" y1="37.4858" x2="72.2" y2="80" gradientUnits="userSpaceOnUse">
<stop stop-color="#D0D5DD"/>
<stop offset="0.350715" stop-color="white" stop-opacity="0"/>
</linearGradient>
<linearGradient id="paint1_linear_667_11793" x1="54.0287" y1="26.8571" x2="110.6" y2="80" gradientUnits="userSpaceOnUse">
<stop stop-color="#D0D5DD"/>
<stop offset="0.350715" stop-color="white" stop-opacity="0"/>
</linearGradient>
<linearGradient id="paint2_linear_667_11793" x1="93.3999" y1="42.8" x2="133" y2="79.9999" gradientUnits="userSpaceOnUse">
<stop stop-color="#D0D5DD"/>
<stop offset="0.350715" stop-color="white" stop-opacity="0"/>
</linearGradient>
</defs>
</svg>
