<svg width="101" height="100" viewBox="0 0 101 100" fill="none" xmlns="http://www.w3.org/2000/svg">
<path opacity="0.5" d="M48.8609 91.6669H52.1398C63.421 91.6669 69.0616 91.6669 72.729 88.0702C76.3965 84.4735 76.7717 78.5737 77.5221 66.7741L78.6034 49.7719C79.0106 43.3696 79.2142 40.1684 77.3743 38.1399C75.5345 36.1113 72.4275 36.1113 66.2136 36.1113H34.7871C28.5731 36.1113 25.4662 36.1113 23.6263 38.1399C21.7865 40.1684 21.9901 43.3696 22.3972 49.7719L23.4785 66.774C24.2289 78.5736 24.6041 84.4735 28.2716 88.0702C31.939 91.6669 37.5797 91.6669 48.8609 91.6669Z" fill="#FC3055"/>
<path d="M13 27.1822C13 25.5385 14.3613 24.206 16.0405 24.206H35.9911C36.0182 20.7009 36.3981 15.8957 39.8765 12.5692C42.614 9.95128 46.367 8.33301 50.5 8.33301C54.6329 8.33301 58.3859 9.95128 61.1234 12.5692C64.6018 15.8957 64.9817 20.7009 65.0088 24.206H84.9595C86.6387 24.206 88 25.5385 88 27.1822C88 28.8259 86.6387 30.1584 84.9595 30.1584H16.0405C14.3613 30.1584 13 28.8259 13 27.1822Z" fill="#FC3055"/>
</svg>
