<svg width="191" height="130" viewBox="0 0 191 130" fill="none" xmlns="http://www.w3.org/2000/svg">
<g opacity="0.6">
<circle cx="21.5" cy="25" r="5" fill="#E9E9E9"/>
<circle cx="18.5" cy="109" r="7" fill="#E9E9E9"/>
<circle cx="145.5" cy="41" r="7" fill="#E9E9E9"/>
<circle cx="134.5" cy="14" r="4" fill="#E9E9E9"/>
<g opacity="0.8">
<ellipse opacity="0.2" cx="85" cy="95.5" rx="52" ry="13.5" fill="#D5D5D5"/>
<circle cx="48" cy="48" r="5" fill="#FFFDFC"/>
<path d="M85 117C85 120.866 81.866 124 78 124C74.134 124 71 120.866 71 117C71 113.134 74.134 110 78 110C81.866 110 85 113.134 85 117Z" fill="#FFFDFC"/>
<circle cx="184" cy="72" r="7" fill="#FFFDFC"/>
<circle cx="168.5" cy="20.5" r="4" fill="#FFFDFC"/>
<g filter="url(#filter0_dd_667_11853)">
<path d="M77.9116 35.987L82.4381 34.0911L77.9122 36.0191V90L119.62 72.5225V18.5175L119.823 18.4324L119.62 18.3422V18.2515L119.516 18.296L78.2408 0L36 17.9935L36.1999 18.0793L36 71.865L77.9116 89.9679L77.9116 35.987Z" fill="#F9FAFB"/>
<path d="M77.9116 35.9873V89.9682L36 71.8653L36.1999 18.0796L77.9116 35.9873Z" fill="url(#paint0_linear_667_11853)"/>
<path d="M77.9126 36.019V89.9999L119.62 72.5224V18.2515L77.9126 36.019Z" fill="url(#paint1_linear_667_11853)"/>
<path opacity="0.5" d="M77.9116 35.987L119.823 18.4324L78.2408 0L36 17.9935L77.9116 35.987Z" fill="#D5D5D5"/>
<path opacity="0.5" d="M51.7991 11.2638L93.5508 29.4367L93.9301 42.68L105.612 37.8598L105.259 24.533L62.2716 6.80273L51.7991 11.2638Z" fill="#D5D5D5"/>
</g>
</g>
</g>
<defs>
<filter id="filter0_dd_667_11853" x="13" y="0" width="130" height="130" filterUnits="userSpaceOnUse" color-interpolation-filters="sRGB">
<feFlood flood-opacity="0" result="BackgroundImageFix"/>
<feColorMatrix in="SourceAlpha" type="matrix" values="0 0 0 0 0 0 0 0 0 0 0 0 0 0 0 0 0 0 127 0" result="hardAlpha"/>
<feMorphology radius="4" operator="erode" in="SourceAlpha" result="effect1_dropShadow_667_11853"/>
<feOffset dy="8"/>
<feGaussianBlur stdDeviation="4"/>
<feColorMatrix type="matrix" values="0 0 0 0 0.0627451 0 0 0 0 0.0941176 0 0 0 0 0.156863 0 0 0 0.03 0"/>
<feBlend mode="normal" in2="BackgroundImageFix" result="effect1_dropShadow_667_11853"/>
<feColorMatrix in="SourceAlpha" type="matrix" values="0 0 0 0 0 0 0 0 0 0 0 0 0 0 0 0 0 0 127 0" result="hardAlpha"/>
<feMorphology radius="4" operator="erode" in="SourceAlpha" result="effect2_dropShadow_667_11853"/>
<feOffset dy="20"/>
<feGaussianBlur stdDeviation="12"/>
<feColorMatrix type="matrix" values="0 0 0 0 0.0627451 0 0 0 0 0.0941176 0 0 0 0 0.156863 0 0 0 0.08 0"/>
<feBlend mode="normal" in2="effect1_dropShadow_667_11853" result="effect2_dropShadow_667_11853"/>
<feBlend mode="normal" in="SourceGraphic" in2="effect2_dropShadow_667_11853" result="shape"/>
</filter>
<linearGradient id="paint0_linear_667_11853" x1="36" y1="72.1366" x2="52.5521" y2="27.3092" gradientUnits="userSpaceOnUse">
<stop stop-color="#F1CFD1"/>
<stop offset="1" stop-color="#EFF1F5"/>
</linearGradient>
<linearGradient id="paint1_linear_667_11853" x1="77.912" y1="37.0756" x2="125.171" y2="46.4845" gradientUnits="userSpaceOnUse">
<stop stop-color="#FFE4E8"/>
<stop offset="1" stop-color="#F2F4F7"/>
</linearGradient>
</defs>
</svg>
