<svg width="101" height="100" viewBox="0 0 101 100" fill="none" xmlns="http://www.w3.org/2000/svg">
<path d="M67.1658 8.33317L62.9991 8.33317C51.214 8.33318 45.3233 8.33411 41.6621 11.9953C38.001 15.6564 38.001 21.549 38.001 33.3341L38.001 66.6675C38.001 78.4526 38.001 84.3451 41.6621 88.0063C45.3224 91.6665 51.2109 91.6665 62.99 91.6665L62.9991 91.6665L67.1658 91.6665C78.9509 91.6665 84.8434 91.6665 88.5046 88.0053C92.1657 84.3442 92.1657 78.4516 92.1657 66.6665L92.1657 33.3332C92.1657 21.5481 92.1657 15.6555 88.5046 11.9943C84.8434 8.33317 78.9509 8.33317 67.1658 8.33317Z" fill="#FDA2B2"/>
<path fill-rule="evenodd" clip-rule="evenodd" d="M66.125 49.9999C66.125 48.2741 64.7259 46.8749 63 46.8749L17.281 46.8749L25.4504 39.8726C26.7608 38.7494 26.9125 36.7766 25.7893 35.4662C24.6661 34.1558 22.6933 34.0041 21.3829 35.1273L6.79961 47.6273C6.10696 48.221 5.70833 49.0877 5.70833 49.9999C5.70833 50.9122 6.10696 51.7789 6.79961 52.3726L21.3829 64.8726C22.6933 65.9958 24.6661 65.8441 25.7893 64.5337C26.9125 63.2233 26.7608 61.2505 25.4504 60.1273L17.281 53.1249L63 53.1249C64.7259 53.1249 66.125 51.7258 66.125 49.9999Z" fill="#FC3055"/>
</svg>
