<svg width="375" height="308" viewBox="0 0 375 308" fill="none" xmlns="http://www.w3.org/2000/svg">
<path opacity="0.2" d="M-31.2325 306.746L-68.062 226.824L90.8745 153.583L127.704 233.505L-31.2325 306.746Z" fill="#F2F2F2"/>
<path opacity="0.1" d="M-68.9699 227.242L-67.7462 226.678C-63.0079 237.031 -56.2645 246.341 -47.9058 254.071C-39.5472 261.802 -29.739 267.799 -19.0485 271.715C-8.37948 275.686 2.97126 277.501 14.3466 277.056C25.722 276.611 36.896 273.913 47.222 269.12C57.5723 264.385 66.8806 257.643 74.608 249.285C82.3353 240.928 88.3283 231.121 92.24 220.432C96.2104 209.761 98.0251 198.408 97.5789 187.031C97.1328 175.654 94.4347 164.479 89.6409 154.151L90.8741 153.583C95.743 164.069 98.4824 175.417 98.9335 186.969C99.3846 198.521 97.5384 210.048 93.5021 220.882C89.5322 231.74 83.4467 241.702 75.5985 250.191C67.7503 258.68 58.2953 265.527 47.7815 270.335C37.2939 275.203 25.9448 277.942 14.3912 278.394C2.83772 278.846 -8.69068 277.001 -19.5264 272.967C-30.3831 268.995 -40.3437 262.909 -48.831 255.06C-57.3182 247.211 -64.1634 237.756 -68.9699 227.242Z" fill="#FD792E"/>
<path opacity="0.2" d="M285.619 163.793L247.825 81.7783L411.855 6.19047L449.649 88.2056L285.619 163.793Z" fill="#F2F2F2"/>
<path opacity="0.1" d="M247.825 81.7781L249.091 81.1949C253.953 91.82 260.874 101.375 269.454 109.307C278.033 117.24 288.101 123.392 299.074 127.407C310.02 131.482 321.666 133.345 333.338 132.889C345.009 132.432 356.475 129.666 367.07 124.749C377.692 119.89 387.245 112.973 395.175 104.396C403.105 95.8195 409.254 85.7548 413.267 74.7849C417.34 63.8344 419.202 52.1848 418.744 40.51C418.287 28.8352 415.518 17.3671 410.599 6.76925L411.855 6.1906C416.852 16.9496 419.665 28.5935 420.13 40.4474C420.594 52.3013 418.702 64.1295 414.562 75.2467C410.483 86.3887 404.236 96.6113 396.181 105.323C388.126 114.035 378.423 121.062 367.634 125.999C356.874 130.996 345.229 133.807 333.374 134.27C321.519 134.732 309.691 132.838 298.573 128.696C287.431 124.622 277.208 118.377 268.497 110.324C259.786 102.27 252.759 92.5672 247.825 81.7781Z" fill="#FC3055"/>
<path opacity="0.2" d="M212.073 0.838674L248.903 80.761L89.9663 154.002L53.1368 74.0792L212.073 0.838674Z" fill="#F2F2F2"/>
<path opacity="0.1" d="M248.902 80.7612L247.686 81.3219C242.949 70.9682 236.218 61.6513 227.881 53.9105C219.544 46.1696 209.768 40.1585 199.117 36.2251C188.491 32.2359 177.191 30.398 165.871 30.8179C154.551 31.2378 143.436 33.907 133.169 38.6712C122.877 43.3803 113.626 50.0956 105.953 58.4283C98.2791 66.761 92.3349 76.5457 88.4642 87.2159C84.5329 97.8679 82.749 109.206 83.2158 120.573C83.6825 131.941 86.3906 143.112 91.1834 153.441L89.9666 154.001C85.0969 143.517 82.3447 132.175 81.8694 120.634C81.394 109.093 83.2051 97.5823 87.1975 86.7681C91.1264 75.9275 97.1635 65.9868 104.959 57.5222C112.754 49.0575 122.153 42.2374 132.61 37.4571C143.038 32.6162 154.329 29.9039 165.828 29.4772C177.327 29.0505 188.806 30.9179 199.6 34.9712C210.413 38.9636 220.339 45.0666 228.802 52.9267C237.265 60.7868 244.097 70.2477 248.902 80.7612Z" fill="#FD792E"/>
</svg>
