<svg width="36" height="35" viewBox="0 0 36 35" fill="none" xmlns="http://www.w3.org/2000/svg">
<path id="Star 1" d="M17.1093 0.745361C17.4804 0.0181098 18.5196 0.0181087 18.8907 0.74536L23.7642 10.2949C23.9095 10.5796 24.1821 10.7777 24.4978 10.8279L35.0859 12.5119C35.8923 12.6401 36.2134 13.6284 35.6364 14.2061L28.0603 21.792C27.8344 22.0182 27.7302 22.3387 27.78 22.6545L29.4504 33.2448C29.5776 34.0513 28.7369 34.6621 28.0092 34.2919L18.4534 29.4307C18.1685 29.2857 17.8315 29.2857 17.5466 29.4307L7.9908 34.2919C7.26307 34.6621 6.42238 34.0513 6.54959 33.2448L8.21996 22.6545C8.26977 22.3387 8.16562 22.0182 7.93974 21.792L0.36356 14.2061C-0.213408 13.6284 0.107707 12.6401 0.914052 12.5119L11.5022 10.8279C11.8179 10.7777 12.0905 10.5796 12.2358 10.2949L17.1093 0.745361Z" fill="#FBA91D"/>
</svg>
