<svg width="134" height="128" viewBox="0 0 134 128" fill="none" xmlns="http://www.w3.org/2000/svg">
<rect width="14.0259" height="14.0231" rx="7" transform="matrix(-0.114228 -0.993455 0.993449 -0.114274 120.069 62.9902)" fill="#FD792E"/>
<rect width="6.0111" height="6.00991" rx="3.00495" transform="matrix(-0.114228 -0.993455 0.993449 -0.114274 110.242 38.9092)" fill="#34BC46"/>
<rect width="6.0111" height="6.00991" rx="3.00495" transform="matrix(-0.114228 -0.993455 0.993449 -0.114274 116.73 86.5693)" fill="#FD9457"/>
<path d="M1.06859 53.9891C7.13614 49.7615 12.6042 62.2425 16.5846 61.7846C20.5649 61.3268 21.3577 56.5295 21.754 54.1308" stroke="#1D96FF"/>
<path d="M99.4654 98.6389C105.779 100.938 116.416 108.387 108.451 119.791C98.4953 134.046 111.543 89.6862 120.255 125.997" stroke="#FC3055"/>
<path d="M93.0845 21.2178C95.9495 18.3671 100.808 10.3457 97.321 1.06558" stroke="#FBA91D"/>
<path d="M100.451 23.9004C103.316 21.0497 108.174 13.0283 104.687 3.7482" stroke="#FBA91D"/>
<rect width="6.0111" height="6.00991" rx="3.00495" transform="matrix(-0.114228 -0.993455 0.993449 -0.114274 75.3496 112.507)" fill="#146DD5"/>
<rect width="6.0111" height="6.00991" rx="3.00495" transform="matrix(-0.114228 -0.993455 0.993449 -0.114274 52.8804 22.3135)" fill="#FEE69B"/>
<rect width="8.01479" height="8.01321" rx="4.00661" transform="matrix(-0.114228 -0.993455 0.993449 -0.114274 31.0229 33.9033)" fill="#FD792E"/>
<rect width="8.01479" height="8.01321" rx="4.00661" transform="matrix(-0.114228 -0.993455 0.993449 -0.114274 42.9346 111.192)" fill="#FEE69B"/>
<rect width="14.0259" height="14.0231" rx="7.01156" transform="matrix(-0.114228 -0.993455 0.993449 -0.114274 64.5923 18.9492)" fill="#146DD5"/>
<rect width="14.0259" height="14.0231" rx="7.01156" transform="matrix(-0.114228 -0.993455 0.993449 -0.114274 20.3213 98.666)" fill="#217D43"/>
<path d="M60.0654 27.3827C59.0492 28.249 58.541 28.6821 57.9983 29.046C56.7541 29.88 55.3569 30.4589 53.8875 30.749C53.2465 30.8756 52.5809 30.9287 51.2497 31.035L51.2497 31.035C47.9051 31.3019 46.2328 31.4354 44.8376 31.9283C41.6107 33.0684 39.0724 35.6071 37.9326 38.8347C37.4398 40.2302 37.3064 41.9029 37.0395 45.2481L37.0394 45.2482C36.9332 46.5796 36.8801 47.2453 36.7536 47.8865C36.4635 49.3561 35.8847 50.7537 35.0508 51.9981C34.687 52.5409 34.254 53.0492 33.3879 54.0657L33.3878 54.0658C31.2116 56.62 30.1234 57.8972 29.4853 59.2325C28.0095 62.3209 28.0095 65.9112 29.4853 68.9996C30.1234 70.3349 31.2115 71.612 33.3878 74.1662L33.3878 74.1663L33.3879 74.1664C34.2539 75.1828 34.6871 75.6912 35.0508 76.234C35.8847 77.4784 36.4635 78.8759 36.7536 80.3456C36.8801 80.9868 36.9332 81.6525 37.0394 82.9839L37.0395 82.984C37.3064 86.3292 37.4398 88.0019 37.9326 89.3973C39.0724 92.6249 41.6107 95.1637 44.8376 96.3038C46.2328 96.7967 47.9051 96.9301 51.2497 97.1971C52.5809 97.3033 53.2465 97.3565 53.8875 97.483C55.3569 97.7732 56.7541 98.3521 57.9983 99.1861C58.541 99.55 59.0492 99.9831 60.0656 100.849C62.6193 103.026 63.8962 104.115 65.2312 104.753C68.319 106.229 71.9086 106.229 74.9964 104.753C76.3314 104.115 77.6083 103.026 80.162 100.849C81.1784 99.9831 81.6866 99.55 82.2293 99.1861C83.4735 98.3521 84.8707 97.7732 86.3401 97.483C86.9811 97.3565 87.6467 97.3033 88.9778 97.1971C92.3225 96.9301 93.9948 96.7967 95.39 96.3038C98.6169 95.1637 101.155 92.6249 102.295 89.3973C102.788 88.0019 102.921 86.3293 103.188 82.9841L103.188 82.9839C103.294 81.6525 103.347 80.9868 103.474 80.3456C103.764 78.8759 104.343 77.4784 105.177 76.234C105.541 75.6912 105.974 75.1829 106.84 74.1663C109.016 71.612 110.104 70.3349 110.742 68.9996C112.218 65.9112 112.218 62.3209 110.742 59.2325C110.104 57.8972 109.016 56.6201 106.84 54.0658L106.84 54.0657C105.974 53.0492 105.541 52.5409 105.177 51.9981C104.343 50.7537 103.764 49.3561 103.474 47.8865C103.347 47.2453 103.294 46.5796 103.188 45.2482L103.188 45.248C102.921 41.9028 102.788 40.2302 102.295 38.8347C101.155 35.6071 98.6169 33.0684 95.39 31.9283C93.9948 31.4354 92.3225 31.3019 88.9779 31.035L88.9778 31.035C87.6467 30.9287 86.9811 30.8756 86.3401 30.749C84.8707 30.4589 83.4735 29.88 82.2293 29.046C81.6866 28.6821 81.1784 28.2489 80.162 27.3826L80.1619 27.3826C77.6082 25.2059 76.3314 24.1175 74.9964 23.4793C71.9086 22.0032 68.319 22.0032 65.2312 23.4793C63.8962 24.1175 62.6193 25.2059 60.0656 27.3826L60.0654 27.3827Z" fill="#34BC46"/>
<path d="M88.367 55.1953C89.6935 53.8685 89.6935 51.7174 88.367 50.3907C87.0405 49.0639 84.8899 49.0639 83.5634 50.3907L63.3207 70.6375L56.6647 63.9801C55.3382 62.6534 53.1876 62.6534 51.8611 63.9801C50.5346 65.3069 50.5346 67.458 51.8611 68.7847L60.9189 77.8444C62.2454 79.1711 64.396 79.1711 65.7225 77.8444L88.367 55.1953Z" fill="#E9E9E9"/>
</svg>
