<svg width="321" height="717" viewBox="0 0 321 717" fill="none" xmlns="http://www.w3.org/2000/svg">
<path d="M151.424 21.207L143.084 26.0623" stroke="#E9E9E9" stroke-width="3" stroke-linecap="round"/>
<path d="M6.16998 134.093L2 137.734" stroke="#FCC44E" stroke-width="3" stroke-linecap="round"/>
<path d="M178.529 69.7598L171.579 65.1774" stroke="#FC3055" stroke-width="3" stroke-linecap="round"/>
<path d="M252.199 75.6813L245.771 72.5172" stroke="#FCC44E" stroke-width="3" stroke-linecap="round"/>
<path d="M177.778 98.6112L181.076 95.2514" stroke="#E9E9E9" stroke-width="3" stroke-linecap="round"/>
<path d="M302.995 102.903L303.296 96.4649" stroke="#E9E9E9" stroke-width="3" stroke-linecap="round"/>
<path d="M252.051 128.112L243.859 123.168" stroke="#FC3055" stroke-width="5" stroke-linecap="round"/>
<path d="M310.239 144.716L311.176 136.52" stroke="#1D96FF" stroke-width="3" stroke-linecap="round"/>
<path d="M199.039 121.654L199.977 113.458" stroke="#FCC44E" stroke-width="3" stroke-linecap="round"/>
<path d="M309.189 217.062L317.29 216.06" stroke="#E9E9E9" stroke-width="4" stroke-linecap="round"/>
<path d="M136.216 105.474L140.219 98.0145" stroke="#1D96FF" stroke-width="3" stroke-linecap="round"/>
<path d="M174.659 501.691L164.036 496.213" stroke="#FFFDFC" stroke-width="5" stroke-linecap="round"/>
<path d="M307.437 564.411L318 558.846" stroke="#E9E9E9" stroke-width="5" stroke-linecap="round"/>
<path d="M228.072 546.795L223.009 544.558" stroke="#E9E9E9" stroke-width="5" stroke-linecap="round"/>
<path d="M120.593 550.994L124.769 547.639" stroke="#E9E9E9" stroke-width="5" stroke-linecap="round"/>
<path d="M283.403 499.454L284.802 504.256" stroke="#E9E9E9" stroke-width="5" stroke-linecap="round"/>
<path d="M50.2984 503.095L53.8464 506.962" stroke="#E9E9E9" stroke-width="5" stroke-linecap="round"/>
<path d="M83.4777 131.284L77.4617 124.939" stroke="#FFFDFC" stroke-width="4" stroke-linecap="round"/>
<path d="M71.9597 83.3347L65.9397 73.4019" stroke="#FC3055" stroke-width="5" stroke-linecap="round"/>
<path d="M24.3345 80.882L28.4097 73.4017" stroke="#F86C55" stroke-width="5" stroke-linecap="round"/>
<path d="M96.1118 8.82217L95.1297 2.99978" stroke="#F86C55" stroke-width="5" stroke-linecap="round"/>
<path d="M281.389 20.9237L290.733 22.3537" stroke="#1D96FF" stroke-width="5" stroke-linecap="round"/>
<path d="M306.409 33.7453L311.369 35.0217" stroke="#FCC44E" stroke-width="4" stroke-linecap="round"/>
<path d="M263.202 48.7926L256.044 43.6452" stroke="#FFFDFC" stroke-width="5" stroke-linecap="round"/>
<path d="M93.0447 62.4764C92.3497 60.4534 91.5157 56.0432 93.7397 54.5866C96.5197 52.7658 101.385 57.6211 103.47 54.5866C105.138 52.1589 103.701 47.9109 102.775 46.0903" stroke="#FCC44E" stroke-width="5" stroke-linecap="round"/>
<path d="M151.424 171.207L143.084 176.062" stroke="#E9E9E9" stroke-width="3" stroke-linecap="round"/>
<path d="M6.16998 284.093L2 287.734" stroke="#E9E9E9" stroke-width="3" stroke-linecap="round"/>
<path d="M178.529 219.76L171.579 215.177" stroke="#E9E9E9" stroke-width="3" stroke-linecap="round"/>
<path d="M252.199 225.681L245.771 222.517" stroke="#FFFDFC" stroke-width="3" stroke-linecap="round"/>
<path d="M177.778 248.611L181.076 245.251" stroke="#E9E9E9" stroke-width="3" stroke-linecap="round"/>
<path d="M302.995 252.903L303.296 246.465" stroke="#E9E9E9" stroke-width="3" stroke-linecap="round"/>
<path d="M252.051 278.112L243.859 273.168" stroke="#E9E9E9" stroke-width="5" stroke-linecap="round"/>
<path d="M310.239 294.716L311.176 286.52" stroke="#FFFDFC" stroke-width="3" stroke-linecap="round"/>
<path d="M199.039 271.654L199.977 263.458" stroke="#E9E9E9" stroke-width="3" stroke-linecap="round"/>
<path d="M309.189 367.062L317.29 366.06" stroke="#E9E9E9" stroke-width="4" stroke-linecap="round"/>
<path d="M136.216 255.474L140.219 248.015" stroke="#FFFDFC" stroke-width="3" stroke-linecap="round"/>
<path d="M174.659 651.691L164.036 646.213" stroke="#FFFDFC" stroke-width="5" stroke-linecap="round"/>
<path d="M307.437 714.411L318 708.846" stroke="#146DD5" stroke-width="5" stroke-linecap="round"/>
<path d="M228.072 696.795L223.009 694.558" stroke="#61D6FF" stroke-width="5" stroke-linecap="round"/>
<path d="M120.593 700.994L124.769 697.639" stroke="#FBA91D" stroke-width="5" stroke-linecap="round"/>
<path d="M283.403 649.454L284.802 654.256" stroke="#FBA91D" stroke-width="5" stroke-linecap="round"/>
<path d="M50.2984 653.095L53.8464 656.962" stroke="#F63029" stroke-width="5" stroke-linecap="round"/>
<path d="M83.4777 281.284L77.4617 274.939" stroke="#E9E9E9" stroke-width="4" stroke-linecap="round"/>
<path d="M71.9597 233.335L65.9397 223.402" stroke="#FFFDFC" stroke-width="5" stroke-linecap="round"/>
<path d="M24.3345 230.882L28.4097 223.402" stroke="#E9E9E9" stroke-width="5" stroke-linecap="round"/>
<path d="M96.1118 158.822L95.1297 153" stroke="#F86C55" stroke-width="5" stroke-linecap="round"/>
<path d="M281.389 170.924L290.733 172.354" stroke="#FCC44E" stroke-width="5" stroke-linecap="round"/>
<path d="M306.409 183.745L311.369 185.022" stroke="#E9E9E9" stroke-width="4" stroke-linecap="round"/>
<path d="M263.202 198.793L256.044 193.645" stroke="#FFFDFC" stroke-width="5" stroke-linecap="round"/>
<path d="M93.0447 212.476C92.3497 210.453 91.5157 206.043 93.7397 204.587C96.5197 202.766 101.385 207.621 103.47 204.587C105.138 202.159 103.701 197.911 102.775 196.09" stroke="#E9E9E9" stroke-width="5" stroke-linecap="round"/>
</svg>
