<svg width="20" height="20" viewBox="0 0 20 20" fill="none" xmlns="http://www.w3.org/2000/svg">
<g clip-path="url(#clip0_845_6076)">
<path d="M12.9814 2.81863L14.6481 3.69326C16.4412 4.63421 17.3377 5.10469 17.8355 5.95011C18.3333 6.79553 18.3333 7.84755 18.3333 9.95158V10.0491C18.3333 12.1531 18.3333 13.2051 17.8355 14.0505C17.3377 14.896 16.4412 15.3664 14.6481 16.3074L12.9814 17.182C11.5184 17.9498 10.7869 18.3337 10 18.3337C9.21311 18.3337 8.4816 17.9498 7.01858 17.182L5.35192 16.3074C3.55886 15.3664 2.66233 14.896 2.1645 14.0505C1.66667 13.2051 1.66667 12.1531 1.66667 10.0491V9.95158C1.66667 7.84755 1.66667 6.79553 2.1645 5.95011C2.66233 5.10469 3.55886 4.63421 5.35192 3.69326L7.01858 2.81863C8.4816 2.05087 9.21311 1.66699 10 1.66699C10.7869 1.66699 11.5184 2.05087 12.9814 2.81863Z" stroke="#414141" stroke-width="1.5" stroke-linecap="round"/>
<path d="M17.5 6.25L14.1667 7.91667M10 10L2.5 6.25M10 10V17.9167M10 10C10 10 12.2855 8.85723 13.75 8.125C13.9127 8.04364 14.1667 7.91667 14.1667 7.91667M14.1667 7.91667V10.8333M14.1667 7.91667L6.25 3.75" stroke="#414141" stroke-width="1.5" stroke-linecap="round"/>
</g>
<defs>
<clipPath id="clip0_845_6076">
<rect width="20" height="20" fill="white"/>
</clipPath>
</defs>
</svg>
