<svg width="20" height="20" viewBox="0 0 20 20" fill="none" xmlns="http://www.w3.org/2000/svg">
<g id="edit">
<path id="Vector" d="M14.0086 5.04986L3.37852 15.7061L2.73438 17.2655L4.29375 16.6213L14.95 5.99126L14.0086 5.04986ZM16.1355 2.92329L15.675 3.38345L16.6164 4.32486L17.077 3.86431C17.1978 3.74338 17.2657 3.57941 17.2657 3.40845C17.2657 3.23749 17.1978 3.07352 17.077 2.95259L17.0477 2.92329C16.9878 2.8634 16.9167 2.81589 16.8384 2.78347C16.7602 2.75106 16.6763 2.73437 16.5916 2.73438C16.5069 2.73437 16.423 2.75106 16.3448 2.78347C16.2665 2.81589 16.1954 2.8634 16.1355 2.92329Z" stroke="#FC3055" stroke-width="2.0625" stroke-linecap="round" stroke-linejoin="round"/>
</g>
</svg>
