<svg width="20" height="20" viewBox="0 0 20 20" fill="none" xmlns="http://www.w3.org/2000/svg">
<g id="Mesages">
<path id="Vector" d="M1.66666 10C1.66666 6.85731 1.66666 5.28596 2.64297 4.30965C3.61928 3.33334 5.19063 3.33334 8.33332 3.33334H11.6667C14.8094 3.33334 16.3807 3.33334 17.357 4.30965C18.3333 5.28596 18.3333 6.85731 18.3333 10C18.3333 13.1427 18.3333 14.7141 17.357 15.6904C16.3807 16.6667 14.8094 16.6667 11.6667 16.6667H8.33332C5.19063 16.6667 3.61928 16.6667 2.64297 15.6904C1.66666 14.7141 1.66666 13.1427 1.66666 10Z" stroke="#949494" stroke-width="1.5"/>
<path id="Vector_2" d="M5 6.66666L6.79908 8.16589C8.32961 9.44133 9.09488 10.0791 10 10.0791C10.9051 10.0791 11.6704 9.44133 13.2009 8.16589L15 6.66666" stroke="#949494" stroke-width="1.5" stroke-linecap="round"/>
</g>
</svg>
