<svg width="40" height="40" viewBox="0 0 40 40" fill="none" xmlns="http://www.w3.org/2000/svg">
<path d="M23.3333 3.3335C23.3333 3.3335 26.9999 3.66683 31.6666 8.3335C36.3333 13.0002 36.6666 16.6668 36.6666 16.6668" stroke="#FC3055" stroke-width="2" stroke-linecap="round"/>
<path d="M23.6785 9.22607C23.6785 9.22607 25.3284 9.69748 27.8033 12.1724C30.2781 14.6472 30.7495 16.2971 30.7495 16.2971" stroke="#FC3055" stroke-width="2" stroke-linecap="round"/>
<path opacity="0.5" d="M16.7294 8.86012L17.8111 10.7983C18.7873 12.5475 18.3954 14.842 16.8579 16.3795C16.8579 16.3795 16.8579 16.3795 16.8579 16.3795C16.8578 16.3796 14.9931 18.2445 18.3743 21.6256C21.7547 25.0061 23.6196 23.1428 23.6204 23.142C23.6204 23.142 23.6204 23.142 23.6204 23.142C25.1579 21.6045 27.4525 21.2127 29.2016 22.1888L31.1398 23.2705C33.781 24.7445 34.0929 28.4486 31.7714 30.7702C30.3764 32.1652 28.6674 33.2506 26.7783 33.3222C23.598 33.4428 18.1972 32.638 12.7796 27.2203C7.36196 21.8027 6.55711 16.4019 6.67767 13.2216C6.74928 11.3325 7.83475 9.62356 9.22976 8.22856C11.5513 5.90697 15.2554 6.2189 16.7294 8.86012Z" stroke="#FC3055" stroke-width="2" stroke-linecap="round"/>
</svg>
