<svg width="24" height="24" viewBox="0 0 24 24" fill="none" xmlns="http://www.w3.org/2000/svg">
<g id="eye">
<path id="Vector" d="M15.5799 11.9999C15.5799 13.9799 13.9799 15.5799 11.9999 15.5799C10.0199 15.5799 8.41992 13.9799 8.41992 11.9999C8.41992 10.0199 10.0199 8.41992 11.9999 8.41992C13.9799 8.41992 15.5799 10.0199 15.5799 11.9999Z" stroke="#2B2B2B" stroke-width="1.5" stroke-linecap="round" stroke-linejoin="round"/>
<path id="Vector_2" d="M12 20.2698C15.53 20.2698 18.82 18.1898 21.11 14.5898C22.01 13.1798 22.01 10.8098 21.11 9.39973C18.82 5.79973 15.53 3.71973 12 3.71973C8.46997 3.71973 5.17997 5.79973 2.88997 9.39973C1.98997 10.8098 1.98997 13.1798 2.88997 14.5898C5.17997 18.1898 8.46997 20.2698 12 20.2698Z" stroke="#2B2B2B" stroke-width="1.5" stroke-linecap="round" stroke-linejoin="round"/>
</g>
</svg>
