<svg width="134" height="128" viewBox="0 0 134 128" fill="none" xmlns="http://www.w3.org/2000/svg">
<rect width="14.0259" height="14.0231" rx="7" transform="matrix(-0.114228 -0.993455 0.993449 -0.114274 120.069 62.9902)" fill="#FD792E"/>
<rect width="6.0111" height="6.00991" rx="3.00495" transform="matrix(-0.114228 -0.993455 0.993449 -0.114274 110.242 38.9092)" fill="#34BC46"/>
<rect width="6.0111" height="6.00991" rx="3.00495" transform="matrix(-0.114228 -0.993455 0.993449 -0.114274 116.73 86.5693)" fill="#FD9457"/>
<path d="M1.06859 53.9891C7.13614 49.7615 12.6042 62.2425 16.5846 61.7846C20.5649 61.3268 21.3577 56.5295 21.754 54.1308" stroke="#1D96FF"/>
<path d="M99.4654 98.6389C105.779 100.938 116.416 108.387 108.451 119.791C98.4953 134.046 111.543 89.6862 120.255 125.997" stroke="#FC3055"/>
<path d="M93.0845 21.2178C95.9495 18.3671 100.808 10.3457 97.321 1.06558" stroke="#FBA91D"/>
<path d="M100.451 23.9004C103.316 21.0497 108.174 13.0283 104.687 3.7482" stroke="#FBA91D"/>
<rect width="6.0111" height="6.00991" rx="3.00495" transform="matrix(-0.114228 -0.993455 0.993449 -0.114274 75.3496 112.507)" fill="#146DD5"/>
<rect width="6.0111" height="6.00991" rx="3.00495" transform="matrix(-0.114228 -0.993455 0.993449 -0.114274 52.8804 22.3135)" fill="#FEE69B"/>
<rect width="8.01479" height="8.01321" rx="4.00661" transform="matrix(-0.114228 -0.993455 0.993449 -0.114274 31.0229 33.9033)" fill="#FD792E"/>
<rect width="8.01479" height="8.01321" rx="4.00661" transform="matrix(-0.114228 -0.993455 0.993449 -0.114274 42.9346 111.192)" fill="#FEE69B"/>
<rect width="14.0259" height="14.0231" rx="7.01156" transform="matrix(-0.114228 -0.993455 0.993449 -0.114274 64.5923 18.9492)" fill="#146DD5"/>
<rect width="14.0259" height="14.0231" rx="7.01156" transform="matrix(-0.114228 -0.993455 0.993449 -0.114274 20.3213 98.666)" fill="#217D43"/>
<path d="M60.0654 27.3826C59.0492 28.2488 58.541 28.682 57.9983 29.0458C56.7541 29.8799 55.3569 30.4587 53.8875 30.7489C53.2465 30.8755 52.5809 30.9286 51.2497 31.0349L51.2497 31.0349C47.9051 31.3018 46.2328 31.4353 44.8376 31.9282C41.6107 33.0682 39.0724 35.607 37.9326 38.8346C37.4398 40.2301 37.3064 41.9027 37.0395 45.248L37.0394 45.248C36.9332 46.5795 36.8801 47.2452 36.7536 47.8863C36.4635 49.356 35.8847 50.7535 35.0508 51.9979C34.687 52.5408 34.254 53.0491 33.3879 54.0656L33.3878 54.0657C31.2116 56.6199 30.1234 57.897 29.4853 59.2323C28.0095 62.3207 28.0095 65.9111 29.4853 68.9995C30.1234 70.3348 31.2115 71.6119 33.3878 74.1661L33.3878 74.1661L33.3879 74.1663C34.2539 75.1827 34.6871 75.6911 35.0508 76.2339C35.8847 77.4783 36.4635 78.8758 36.7536 80.3455C36.8801 80.9866 36.9332 81.6523 37.0394 82.9838L37.0395 82.9838C37.3064 86.3291 37.4398 88.0017 37.9326 89.3972C39.0724 92.6248 41.6107 95.1636 44.8376 96.3036C46.2328 96.7965 47.9051 96.93 51.2497 97.1969C52.5809 97.3032 53.2465 97.3563 53.8875 97.4829C55.3569 97.7731 56.7541 98.3519 57.9983 99.186C58.541 99.5498 59.0492 99.983 60.0656 100.849C62.6193 103.026 63.8962 104.114 65.2312 104.753C68.319 106.229 71.9086 106.229 74.9964 104.753C76.3314 104.114 77.6083 103.026 80.162 100.849C81.1784 99.983 81.6866 99.5498 82.2293 99.186C83.4735 98.3519 84.8707 97.7731 86.3401 97.4829C86.9811 97.3563 87.6467 97.3032 88.9778 97.1969C92.3225 96.93 93.9948 96.7965 95.39 96.3036C98.6169 95.1636 101.155 92.6248 102.295 89.3972C102.788 88.0017 102.921 86.3291 103.188 82.984L103.188 82.9838C103.294 81.6523 103.347 80.9866 103.474 80.3455C103.764 78.8758 104.343 77.4783 105.177 76.2339C105.541 75.691 105.974 75.1827 106.84 74.1661C109.016 71.6119 110.104 70.3348 110.742 68.9995C112.218 65.9111 112.218 62.3207 110.742 59.2323C110.104 57.897 109.016 56.6199 106.84 54.0657L106.84 54.0656C105.974 53.049 105.541 52.5408 105.177 51.9979C104.343 50.7535 103.764 49.356 103.474 47.8863C103.347 47.2452 103.294 46.5795 103.188 45.248L103.188 45.2478C102.921 41.9027 102.788 40.2301 102.295 38.8346C101.155 35.607 98.6169 33.0682 95.39 31.9282C93.9948 31.4353 92.3225 31.3018 88.9779 31.0349L88.9778 31.0349C87.6467 30.9286 86.9811 30.8755 86.3401 30.7489C84.8707 30.4587 83.4735 29.8799 82.2293 29.0458C81.6866 28.682 81.1784 28.2488 80.162 27.3825L80.1619 27.3824C77.6082 25.2057 76.3314 24.1174 74.9964 23.4792C71.9086 22.003 68.319 22.003 65.2312 23.4792C63.8962 24.1174 62.6193 25.2058 60.0656 27.3825L60.0654 27.3826Z" fill="#34BC46"/>
<path d="M88.367 55.1952C89.6935 53.8684 89.6935 51.7173 88.367 50.3906C87.0405 49.0638 84.8899 49.0638 83.5634 50.3906L63.3207 70.6374L56.6647 63.98C55.3382 62.6533 53.1876 62.6533 51.8611 63.98C50.5346 65.3068 50.5346 67.4579 51.8611 68.7846L60.9189 77.8443C62.2454 79.171 64.396 79.171 65.7225 77.8443L88.367 55.1952Z" fill="#E9E9E9"/>
</svg>
