<svg width="24" height="24" viewBox="0 0 24 24" fill="none" xmlns="http://www.w3.org/2000/svg">
<path d="M2.36397 12.9581C1.98453 10.3211 1.79481 9.00253 2.33527 7.87519C2.87573 6.74785 4.02609 6.06258 6.32681 4.69205L7.71165 3.86711C9.80094 2.62253 10.8456 2.00024 11.9999 2.00024C13.1542 2.00024 14.1989 2.62253 16.2881 3.86711L17.673 4.69205C19.9737 6.06258 21.1241 6.74785 21.6645 7.87519C22.205 9.00253 22.0153 10.3211 21.6358 12.9581L21.3571 14.8955C20.8696 18.2829 20.6259 19.9766 19.4509 20.9884C18.2758 22.0002 16.5525 22.0002 13.106 22.0002H10.8938C7.44727 22.0002 5.72399 22.0002 4.54893 20.9884C3.37386 19.9766 3.13016 18.2829 2.64274 14.8955L2.36397 12.9581Z" stroke="#FC3055" stroke-width="1.5"/>
<path d="M15 18H9" stroke="#FC3055" stroke-width="1.5" stroke-linecap="round"/>
</svg>
