<svg width="40" height="40" viewBox="0 0 40 40" fill="none" xmlns="http://www.w3.org/2000/svg">
<path d="M13.3333 26.6668C13.3333 31.3809 13.3333 33.7379 14.7977 35.2024C16.2622 36.6668 18.6192 36.6668 23.3333 36.6668H24.9999C29.714 36.6668 32.071 36.6668 33.5355 35.2024C34.9999 33.7379 34.9999 31.3809 34.9999 26.6668V13.3335C34.9999 8.61945 34.9999 6.26243 33.5355 4.79796C32.071 3.3335 29.714 3.3335 24.9999 3.3335H23.3333C18.6192 3.3335 16.2622 3.3335 14.7977 4.79796C13.3333 6.26243 13.3333 8.61945 13.3333 13.3335" stroke="#FC3055" stroke-width="2" stroke-linecap="round"/>
<path opacity="0.5" d="M13.3333 32.5C9.40496 32.5 7.44078 32.5 6.22039 31.2796C5 30.0592 5 28.095 5 24.1667V15.8333C5 11.905 5 9.94078 6.22039 8.72039C7.44078 7.5 9.40496 7.5 13.3333 7.5" stroke="#FC3055" stroke-width="2"/>
<path d="M10 20.0002L25 20.0002M25 20.0002L20.8333 24.1668M25 20.0002L20.8333 15.8335" stroke="#FC3055" stroke-width="2" stroke-linecap="round" stroke-linejoin="round"/>
</svg>
