<svg width="20" height="20" viewBox="0 0 20 20" fill="none" xmlns="http://www.w3.org/2000/svg">
<path d="M15.8333 8.08683V7.50008C15.8333 4.27842 13.2217 1.66675 10 1.66675C6.77834 1.66675 4.16667 4.27842 4.16667 7.50008V8.08683C4.16667 8.79099 3.95824 9.47939 3.56764 10.0653L2.61047 11.501C1.73619 12.8125 2.40363 14.595 3.92422 15.0097C7.9021 16.0946 12.0979 16.0946 16.0758 15.0097C17.5964 14.595 18.2638 12.8125 17.3895 11.501L16.4324 10.0653C16.0418 9.4794 15.8333 8.79099 15.8333 8.08683Z" stroke="#FFFDFC" stroke-width="1.5"/>
<path d="M6.25 15.8333C6.79586 17.2897 8.26871 18.3333 10 18.3333C11.7313 18.3333 13.2041 17.2897 13.75 15.8333" stroke="#FFFDFC" stroke-width="1.5" stroke-linecap="round"/>
</svg>
