<svg width="20" height="20" viewBox="0 0 20 20" fill="none" xmlns="http://www.w3.org/2000/svg">
<mask id="path-1-inside-1_800_2309" fill="white">
<path d="M7.4889 4.23113C7.70168 4.31613 7.84168 4.52224 7.84168 4.75168V8.92002C7.84168 9.06883 7.78256 9.21155 7.67733 9.31678C7.5721 9.42201 7.42938 9.48113 7.28057 9.48113C7.13175 9.48113 6.98903 9.42201 6.8838 9.31678C6.77857 9.21155 6.71946 9.06883 6.71946 8.92002V6.22779C6.71935 6.22205 6.71757 6.21645 6.71433 6.21171C6.71109 6.20696 6.70653 6.20327 6.70121 6.20108C6.6959 6.1989 6.69006 6.19832 6.68441 6.19941C6.67877 6.2005 6.67357 6.20322 6.66946 6.20724C6.6192 6.26267 6.55836 6.30749 6.49053 6.33907C6.42269 6.37064 6.34923 6.38833 6.27446 6.39109C6.19968 6.39385 6.12511 6.38163 6.05513 6.35514C5.98516 6.32866 5.92118 6.28845 5.86697 6.23687C5.81276 6.18529 5.76942 6.1234 5.73949 6.05482C5.70956 5.98624 5.69365 5.91237 5.69269 5.83756C5.69173 5.76274 5.70574 5.68848 5.7339 5.61916C5.76207 5.54984 5.80381 5.48685 5.85668 5.4339L6.87446 4.36502C6.95179 4.28388 7.05164 4.22777 7.16116 4.20391C7.27067 4.18004 7.38482 4.18952 7.4889 4.23113ZM12.6833 5.31335C12.5839 5.31835 12.4272 5.36724 12.2506 5.57724C12.2034 5.63433 12.1453 5.68152 12.0798 5.71606C12.0143 5.75061 11.9425 5.77184 11.8688 5.77853C11.795 5.78522 11.7206 5.77723 11.6499 5.75503C11.5793 5.73282 11.5137 5.69685 11.457 5.64917C11.4003 5.60149 11.3536 5.54306 11.3196 5.47724C11.2856 5.41143 11.265 5.33953 11.2589 5.2657C11.2528 5.19187 11.2614 5.11757 11.2842 5.04708C11.307 4.97659 11.3435 4.91132 11.3917 4.85502C11.7372 4.4439 12.1706 4.21557 12.6272 4.19279C12.84 4.18313 13.0524 4.21818 13.2508 4.29569C13.4491 4.3732 13.6291 4.49145 13.7789 4.64279C14.39 5.25224 14.4656 6.29224 13.6822 7.13335C13.4545 7.37779 13.1783 7.66668 12.8989 7.95835V7.95891L12.6283 8.24113C12.6188 8.25093 12.6124 8.26332 12.6099 8.27674C12.6074 8.29017 12.6089 8.30403 12.6143 8.3166C12.6196 8.32917 12.6285 8.33988 12.6399 8.34741C12.6513 8.35493 12.6647 8.35893 12.6783 8.3589H13.8311C13.9799 8.3589 14.1227 8.41802 14.2279 8.52325C14.3331 8.62848 14.3922 8.7712 14.3922 8.92002C14.3922 9.06883 14.3331 9.21155 14.2279 9.31678C14.1227 9.42201 13.9799 9.48113 13.8311 9.48113H11.5811C10.9778 9.48113 10.6167 8.76113 11.0483 8.28557C11.3217 7.98446 11.7267 7.56057 12.1133 7.15613C12.3911 6.86557 12.6589 6.58557 12.8611 6.36835C13.075 6.13891 13.1306 5.93779 13.1311 5.79668C13.1321 5.73018 13.1198 5.66415 13.095 5.60244C13.0702 5.54073 13.0334 5.48457 12.9867 5.43724C12.9477 5.39643 12.9005 5.3643 12.8482 5.34296C12.796 5.32161 12.7398 5.31152 12.6833 5.31335ZM6.67723 11.9333C6.71188 11.861 6.76347 11.798 6.82762 11.7499C6.89178 11.7017 6.96661 11.6697 7.04576 11.6566C7.12492 11.6435 7.20606 11.6497 7.28232 11.6746C7.35857 11.6996 7.42769 11.7425 7.4838 11.7999C7.53991 11.8572 7.58136 11.9273 7.60464 12.004C7.62792 12.0808 7.63233 12.1621 7.61751 12.2409C7.60269 12.3198 7.56907 12.3939 7.51951 12.457C7.46994 12.5201 7.40589 12.5703 7.33279 12.6034C7.32626 12.6062 7.31933 12.6081 7.31223 12.6089C7.17799 12.623 7.05334 12.6851 6.96113 12.7836C6.86892 12.8822 6.81533 13.0107 6.8102 13.1456C6.80507 13.2805 6.84874 13.4127 6.93319 13.518C7.01765 13.6233 7.13723 13.6946 7.27001 13.7189C7.35256 13.7435 7.42736 13.7889 7.48715 13.8509C7.54694 13.9129 7.58968 13.9893 7.61123 14.0727C7.63277 14.1561 7.63239 14.2436 7.61012 14.3268C7.58784 14.41 7.54444 14.486 7.48411 14.5475C7.42378 14.6089 7.34859 14.6538 7.26582 14.6776C7.18306 14.7014 7.09555 14.7034 7.01177 14.6834C6.928 14.6635 6.85082 14.6222 6.78772 14.5635C6.72463 14.5049 6.67776 14.431 6.65168 14.3489C6.62978 14.2782 6.59409 14.2125 6.54669 14.1556C6.49928 14.0987 6.44108 14.0518 6.37545 14.0175C6.30983 13.9832 6.23806 13.9623 6.1643 13.9559C6.09054 13.9495 6.01623 13.9577 5.94567 13.9801C5.87511 14.0026 5.80969 14.0388 5.75317 14.0866C5.69666 14.1344 5.65017 14.193 5.61638 14.2589C5.5826 14.3247 5.56219 14.3967 5.55633 14.4705C5.55047 14.5443 5.55927 14.6185 5.58223 14.6889C5.65386 14.914 5.7738 15.1206 5.93365 15.2945C6.0935 15.4683 6.28941 15.6052 6.50766 15.6954C6.72592 15.7856 6.96126 15.8271 7.19721 15.8168C7.43315 15.8066 7.66402 15.7449 7.87365 15.6362C8.08328 15.5274 8.26661 15.3741 8.41081 15.1871C8.55502 15 8.65661 14.7838 8.7085 14.5534C8.76038 14.323 8.76129 14.084 8.71117 13.8532C8.66106 13.6224 8.56112 13.4054 8.41834 13.2172C8.40861 13.2045 8.40334 13.1889 8.40334 13.1728C8.40334 13.1567 8.40861 13.1411 8.41834 13.1283C8.55571 12.9479 8.6537 12.7406 8.70596 12.52C8.75822 12.2993 8.76359 12.0701 8.72174 11.8472C8.67988 11.6243 8.59173 11.4127 8.46297 11.226C8.33421 11.0393 8.16772 10.8817 7.97424 10.7634C7.78077 10.6451 7.56462 10.5687 7.33977 10.5391C7.11493 10.5096 6.88638 10.5275 6.6689 10.5918C6.45142 10.6561 6.24985 10.7653 6.07721 10.9124C5.90458 11.0594 5.76472 11.2411 5.66668 11.4456C5.63469 11.512 5.61609 11.584 5.61194 11.6576C5.60779 11.7312 5.61817 11.8048 5.64249 11.8744C5.69162 12.0149 5.79454 12.1301 5.92862 12.1947C6.0627 12.2593 6.21696 12.268 6.35746 12.2189C6.42702 12.1946 6.49112 12.1568 6.54608 12.1077C6.60104 12.0586 6.6458 11.9992 6.67779 11.9328L6.67723 11.9333ZM12.4933 11.255C12.5294 11.1106 12.5067 10.9578 12.4301 10.8302C12.3535 10.7025 12.2294 10.6106 12.085 10.5745C11.9406 10.5384 11.7878 10.5611 11.6602 10.6377C11.5325 10.7143 11.4406 10.8384 11.4045 10.9828L10.8167 13.3411C10.796 13.4239 10.7944 13.5102 10.8121 13.5936C10.8298 13.6771 10.8663 13.7554 10.9188 13.8226C10.9713 13.8898 11.0384 13.9442 11.115 13.9816C11.1917 14.0189 11.2758 14.0384 11.3611 14.0383H12.6189C12.6572 14.0383 12.6883 14.0695 12.6883 14.1078V15.2483C12.6883 15.3972 12.7475 15.5399 12.8527 15.6451C12.9579 15.7503 13.1006 15.8095 13.2495 15.8095C13.3983 15.8095 13.541 15.7503 13.6462 15.6451C13.7514 15.5399 13.8106 15.3972 13.8106 15.2483V14.0833C13.8106 14.05 13.8339 14.0222 13.8656 14.0128C13.9797 13.9771 14.0794 13.9059 14.1503 13.8096C14.2211 13.7132 14.2593 13.5968 14.2593 13.4772C14.2593 13.3577 14.2211 13.2412 14.1503 13.1449C14.0794 13.0486 13.9797 12.9774 13.8656 12.9417C13.8499 12.9374 13.836 12.9281 13.826 12.9153C13.816 12.9025 13.8104 12.8868 13.81 12.8706V12.5617C13.8054 12.416 13.7443 12.2778 13.6397 12.1764C13.535 12.0749 13.3949 12.0182 13.2492 12.0182C13.1034 12.0182 12.9634 12.0749 12.8587 12.1764C12.754 12.2778 12.6929 12.416 12.6883 12.5617V12.8467C12.6883 12.8651 12.681 12.8828 12.668 12.8958C12.655 12.9088 12.6373 12.9161 12.6189 12.9161H12.1683C12.1578 12.9161 12.1474 12.9137 12.138 12.9091C12.1285 12.9044 12.1203 12.8977 12.1138 12.8894C12.1073 12.8811 12.1028 12.8715 12.1006 12.8612C12.0984 12.8509 12.0986 12.8402 12.1011 12.83L12.4933 11.255Z"/>
</mask>
<path d="M7.4889 4.23113C7.70168 4.31613 7.84168 4.52224 7.84168 4.75168V8.92002C7.84168 9.06883 7.78256 9.21155 7.67733 9.31678C7.5721 9.42201 7.42938 9.48113 7.28057 9.48113C7.13175 9.48113 6.98903 9.42201 6.8838 9.31678C6.77857 9.21155 6.71946 9.06883 6.71946 8.92002V6.22779C6.71935 6.22205 6.71757 6.21645 6.71433 6.21171C6.71109 6.20696 6.70653 6.20327 6.70121 6.20108C6.6959 6.1989 6.69006 6.19832 6.68441 6.19941C6.67877 6.2005 6.67357 6.20322 6.66946 6.20724C6.6192 6.26267 6.55836 6.30749 6.49053 6.33907C6.42269 6.37064 6.34923 6.38833 6.27446 6.39109C6.19968 6.39385 6.12511 6.38163 6.05513 6.35514C5.98516 6.32866 5.92118 6.28845 5.86697 6.23687C5.81276 6.18529 5.76942 6.1234 5.73949 6.05482C5.70956 5.98624 5.69365 5.91237 5.69269 5.83756C5.69173 5.76274 5.70574 5.68848 5.7339 5.61916C5.76207 5.54984 5.80381 5.48685 5.85668 5.4339L6.87446 4.36502C6.95179 4.28388 7.05164 4.22777 7.16116 4.20391C7.27067 4.18004 7.38482 4.18952 7.4889 4.23113ZM12.6833 5.31335C12.5839 5.31835 12.4272 5.36724 12.2506 5.57724C12.2034 5.63433 12.1453 5.68152 12.0798 5.71606C12.0143 5.75061 11.9425 5.77184 11.8688 5.77853C11.795 5.78522 11.7206 5.77723 11.6499 5.75503C11.5793 5.73282 11.5137 5.69685 11.457 5.64917C11.4003 5.60149 11.3536 5.54306 11.3196 5.47724C11.2856 5.41143 11.265 5.33953 11.2589 5.2657C11.2528 5.19187 11.2614 5.11757 11.2842 5.04708C11.307 4.97659 11.3435 4.91132 11.3917 4.85502C11.7372 4.4439 12.1706 4.21557 12.6272 4.19279C12.84 4.18313 13.0524 4.21818 13.2508 4.29569C13.4491 4.3732 13.6291 4.49145 13.7789 4.64279C14.39 5.25224 14.4656 6.29224 13.6822 7.13335C13.4545 7.37779 13.1783 7.66668 12.8989 7.95835V7.95891L12.6283 8.24113C12.6188 8.25093 12.6124 8.26332 12.6099 8.27674C12.6074 8.29017 12.6089 8.30403 12.6143 8.3166C12.6196 8.32917 12.6285 8.33988 12.6399 8.34741C12.6513 8.35493 12.6647 8.35893 12.6783 8.3589H13.8311C13.9799 8.3589 14.1227 8.41802 14.2279 8.52325C14.3331 8.62848 14.3922 8.7712 14.3922 8.92002C14.3922 9.06883 14.3331 9.21155 14.2279 9.31678C14.1227 9.42201 13.9799 9.48113 13.8311 9.48113H11.5811C10.9778 9.48113 10.6167 8.76113 11.0483 8.28557C11.3217 7.98446 11.7267 7.56057 12.1133 7.15613C12.3911 6.86557 12.6589 6.58557 12.8611 6.36835C13.075 6.13891 13.1306 5.93779 13.1311 5.79668C13.1321 5.73018 13.1198 5.66415 13.095 5.60244C13.0702 5.54073 13.0334 5.48457 12.9867 5.43724C12.9477 5.39643 12.9005 5.3643 12.8482 5.34296C12.796 5.32161 12.7398 5.31152 12.6833 5.31335ZM6.67723 11.9333C6.71188 11.861 6.76347 11.798 6.82762 11.7499C6.89178 11.7017 6.96661 11.6697 7.04576 11.6566C7.12492 11.6435 7.20606 11.6497 7.28232 11.6746C7.35857 11.6996 7.42769 11.7425 7.4838 11.7999C7.53991 11.8572 7.58136 11.9273 7.60464 12.004C7.62792 12.0808 7.63233 12.1621 7.61751 12.2409C7.60269 12.3198 7.56907 12.3939 7.51951 12.457C7.46994 12.5201 7.40589 12.5703 7.33279 12.6034C7.32626 12.6062 7.31933 12.6081 7.31223 12.6089C7.17799 12.623 7.05334 12.6851 6.96113 12.7836C6.86892 12.8822 6.81533 13.0107 6.8102 13.1456C6.80507 13.2805 6.84874 13.4127 6.93319 13.518C7.01765 13.6233 7.13723 13.6946 7.27001 13.7189C7.35256 13.7435 7.42736 13.7889 7.48715 13.8509C7.54694 13.9129 7.58968 13.9893 7.61123 14.0727C7.63277 14.1561 7.63239 14.2436 7.61012 14.3268C7.58784 14.41 7.54444 14.486 7.48411 14.5475C7.42378 14.6089 7.34859 14.6538 7.26582 14.6776C7.18306 14.7014 7.09555 14.7034 7.01177 14.6834C6.928 14.6635 6.85082 14.6222 6.78772 14.5635C6.72463 14.5049 6.67776 14.431 6.65168 14.3489C6.62978 14.2782 6.59409 14.2125 6.54669 14.1556C6.49928 14.0987 6.44108 14.0518 6.37545 14.0175C6.30983 13.9832 6.23806 13.9623 6.1643 13.9559C6.09054 13.9495 6.01623 13.9577 5.94567 13.9801C5.87511 14.0026 5.80969 14.0388 5.75317 14.0866C5.69666 14.1344 5.65017 14.193 5.61638 14.2589C5.5826 14.3247 5.56219 14.3967 5.55633 14.4705C5.55047 14.5443 5.55927 14.6185 5.58223 14.6889C5.65386 14.914 5.7738 15.1206 5.93365 15.2945C6.0935 15.4683 6.28941 15.6052 6.50766 15.6954C6.72592 15.7856 6.96126 15.8271 7.19721 15.8168C7.43315 15.8066 7.66402 15.7449 7.87365 15.6362C8.08328 15.5274 8.26661 15.3741 8.41081 15.1871C8.55502 15 8.65661 14.7838 8.7085 14.5534C8.76038 14.323 8.76129 14.084 8.71117 13.8532C8.66106 13.6224 8.56112 13.4054 8.41834 13.2172C8.40861 13.2045 8.40334 13.1889 8.40334 13.1728C8.40334 13.1567 8.40861 13.1411 8.41834 13.1283C8.55571 12.9479 8.6537 12.7406 8.70596 12.52C8.75822 12.2993 8.76359 12.0701 8.72174 11.8472C8.67988 11.6243 8.59173 11.4127 8.46297 11.226C8.33421 11.0393 8.16772 10.8817 7.97424 10.7634C7.78077 10.6451 7.56462 10.5687 7.33977 10.5391C7.11493 10.5096 6.88638 10.5275 6.6689 10.5918C6.45142 10.6561 6.24985 10.7653 6.07721 10.9124C5.90458 11.0594 5.76472 11.2411 5.66668 11.4456C5.63469 11.512 5.61609 11.584 5.61194 11.6576C5.60779 11.7312 5.61817 11.8048 5.64249 11.8744C5.69162 12.0149 5.79454 12.1301 5.92862 12.1947C6.0627 12.2593 6.21696 12.268 6.35746 12.2189C6.42702 12.1946 6.49112 12.1568 6.54608 12.1077C6.60104 12.0586 6.6458 11.9992 6.67779 11.9328L6.67723 11.9333ZM12.4933 11.255C12.5294 11.1106 12.5067 10.9578 12.4301 10.8302C12.3535 10.7025 12.2294 10.6106 12.085 10.5745C11.9406 10.5384 11.7878 10.5611 11.6602 10.6377C11.5325 10.7143 11.4406 10.8384 11.4045 10.9828L10.8167 13.3411C10.796 13.4239 10.7944 13.5102 10.8121 13.5936C10.8298 13.6771 10.8663 13.7554 10.9188 13.8226C10.9713 13.8898 11.0384 13.9442 11.115 13.9816C11.1917 14.0189 11.2758 14.0384 11.3611 14.0383H12.6189C12.6572 14.0383 12.6883 14.0695 12.6883 14.1078V15.2483C12.6883 15.3972 12.7475 15.5399 12.8527 15.6451C12.9579 15.7503 13.1006 15.8095 13.2495 15.8095C13.3983 15.8095 13.541 15.7503 13.6462 15.6451C13.7514 15.5399 13.8106 15.3972 13.8106 15.2483V14.0833C13.8106 14.05 13.8339 14.0222 13.8656 14.0128C13.9797 13.9771 14.0794 13.9059 14.1503 13.8096C14.2211 13.7132 14.2593 13.5968 14.2593 13.4772C14.2593 13.3577 14.2211 13.2412 14.1503 13.1449C14.0794 13.0486 13.9797 12.9774 13.8656 12.9417C13.8499 12.9374 13.836 12.9281 13.826 12.9153C13.816 12.9025 13.8104 12.8868 13.81 12.8706V12.5617C13.8054 12.416 13.7443 12.2778 13.6397 12.1764C13.535 12.0749 13.3949 12.0182 13.2492 12.0182C13.1034 12.0182 12.9634 12.0749 12.8587 12.1764C12.754 12.2778 12.6929 12.416 12.6883 12.5617V12.8467C12.6883 12.8651 12.681 12.8828 12.668 12.8958C12.655 12.9088 12.6373 12.9161 12.6189 12.9161H12.1683C12.1578 12.9161 12.1474 12.9137 12.138 12.9091C12.1285 12.9044 12.1203 12.8977 12.1138 12.8894C12.1073 12.8811 12.1028 12.8715 12.1006 12.8612C12.0984 12.8509 12.0986 12.8402 12.1011 12.83L12.4933 11.255Z" fill="#2B2B2B" stroke="#949494" stroke-width="2" mask="url(#path-1-inside-1_800_2309)"/>
<path d="M3.5728 17.6599L3.39468 18.0899L3.5728 17.6599C3.29644 17.5455 3.04534 17.3777 2.83383 17.1662C2.40667 16.739 2.16669 16.1596 2.16669 15.5555V4.44443C2.16669 3.84033 2.40667 3.26097 2.83383 2.8338C3.04534 2.62229 3.29644 2.45451 3.5728 2.34004C3.84915 2.22557 4.14534 2.16666 4.44446 2.16666H15.5556C15.8547 2.16666 16.1509 2.22557 16.4272 2.34004C16.7036 2.45451 16.9547 2.62229 17.1662 2.8338C17.3777 3.04531 17.5455 3.29641 17.66 3.57276L18.09 3.39465L17.66 3.57277C17.7744 3.84912 17.8334 4.14531 17.8334 4.44443V15.5555C17.8334 16.1596 17.5934 16.739 17.1662 17.1662C16.739 17.5933 16.1597 17.8333 15.5556 17.8333H4.44446C4.14534 17.8333 3.84915 17.7744 3.5728 17.6599ZM2.9124 2.91237C2.50607 3.3187 2.2778 3.8698 2.2778 4.44443V15.5555C2.2778 16.1302 2.50607 16.6813 2.9124 17.0876C3.31873 17.4939 3.86983 17.7222 4.44446 17.7222H15.5556C16.1302 17.7222 16.6813 17.4939 17.0876 17.0876C17.494 16.6813 17.7222 16.1302 17.7222 15.5555V4.44443C17.7222 3.8698 17.494 3.3187 17.0876 2.91237C16.6813 2.50604 16.1302 2.27777 15.5556 2.27777H4.44446C3.86983 2.27777 3.31873 2.50604 2.9124 2.91237Z" fill="#2B2B2B" stroke="#949494"/>
</svg>
