<svg width="25" height="24" viewBox="0 0 25 24" fill="none" xmlns="http://www.w3.org/2000/svg">
<path d="M6.5 17.9827C4.94655 17.9359 4.01998 17.7626 3.37868 17.1213C2.5 16.2426 2.5 14.8284 2.5 12C2.5 9.17157 2.5 7.75736 3.37868 6.87868C4.25736 6 5.67157 6 8.5 6H16.5C19.3284 6 20.7426 6 21.6213 6.87868C22.5 7.75736 22.5 9.17157 22.5 12C22.5 14.8284 22.5 16.2426 21.6213 17.1213C20.98 17.7626 20.0535 17.9359 18.5 17.9827" stroke="#FFFDFC"/>
<path d="M9.5 10H6.5" stroke="#FFFDFC" stroke-linecap="round"/>
<path d="M19.5 14L5.5 14" stroke="#FFFDFC" stroke-linecap="round"/>
<path d="M17.6213 2.87868L17.2678 3.23223L17.6213 2.87868ZM7.37868 2.87868L7.73223 3.23223L7.73223 3.23223L7.37868 2.87868ZM7.37868 21.1213L7.73223 20.7678H7.73223L7.37868 21.1213ZM19 14C19 13.7239 18.7761 13.5 18.5 13.5C18.2239 13.5 18 13.7239 18 14H19ZM7 14C7 13.7239 6.77614 13.5 6.5 13.5C6.22386 13.5 6 13.7239 6 14H7ZM18 16C18 17.4283 17.9989 18.4493 17.8946 19.2252C17.7922 19.9867 17.5987 20.4368 17.2678 20.7678L17.9749 21.4749C18.5226 20.9272 18.7684 20.2308 18.8857 19.3584C19.0011 18.5004 19 17.4001 19 16H18ZM12.5 22.5C13.9001 22.5 15.0004 22.5011 15.8584 22.3857C16.7308 22.2684 17.4272 22.0226 17.9749 21.4749L17.2678 20.7678C16.9368 21.0987 16.4867 21.2922 15.7252 21.3946C14.9493 21.4989 13.9283 21.5 12.5 21.5V22.5ZM12.5 2.5C13.9283 2.5 14.9493 2.50106 15.7252 2.60538C16.4867 2.70776 16.9368 2.90128 17.2678 3.23223L17.9749 2.52513C17.4271 1.9774 16.7308 1.73158 15.8584 1.61429C15.0004 1.49894 13.9001 1.5 12.5 1.5V2.5ZM12.5 1.5C11.0999 1.5 9.99956 1.49894 9.14156 1.61429C8.26917 1.73158 7.57285 1.9774 7.02513 2.52513L7.73223 3.23223C8.06319 2.90128 8.51331 2.70776 9.27481 2.60538C10.0507 2.50106 11.0717 2.5 12.5 2.5V1.5ZM6 16C6 17.4001 5.99894 18.5004 6.11429 19.3584C6.23158 20.2308 6.4774 20.9272 7.02513 21.4749L7.73223 20.7678C7.40128 20.4368 7.20776 19.9867 7.10538 19.2252C7.00106 18.4493 7 17.4283 7 16H6ZM12.5 21.5C11.0717 21.5 10.0507 21.4989 9.27481 21.3946C8.51331 21.2922 8.06319 21.0987 7.73223 20.7678L7.02513 21.4749C7.57285 22.0226 8.26918 22.2684 9.14156 22.3857C9.99956 22.5011 11.0999 22.5 12.5 22.5V21.5ZM18.9824 5.98494C18.9359 4.43899 18.77 3.32024 17.9749 2.52513L17.2678 3.23223C17.7553 3.71972 17.9359 4.45411 17.9829 6.01506L18.9824 5.98494ZM7.0171 6.01506C7.06413 4.45412 7.24474 3.71972 7.73223 3.23223L7.02513 2.52513C6.23001 3.32024 6.06413 4.43899 6.01755 5.98494L7.0171 6.01506ZM19 16V14H18V16H19ZM7 16V14H6V16H7Z" fill="#FFFDFC"/>
<circle cx="17.5" cy="10" r="1" fill="#FFFDFC"/>
<path d="M15.5 16.5H9.5" stroke="#FFFDFC" stroke-linecap="round"/>
<path d="M13.5 19H9.5" stroke="#FFFDFC" stroke-linecap="round"/>
</svg>
