<svg width="25" height="24" viewBox="0 0 25 24" fill="none" xmlns="http://www.w3.org/2000/svg">
<path d="M10.5 22C6.72876 22 4.84315 22 3.67157 20.8284C2.5 19.6569 2.5 18.7712 2.5 15" stroke="#FFFDFC" stroke-width="1.5" stroke-linecap="round"/>
<path d="M22.5 15C22.5 18.7712 22.5 19.6569 21.3284 20.8284C20.1569 22 18.2712 22 14.5 22" stroke="#FFFDFC" stroke-width="1.5" stroke-linecap="round"/>
<path d="M14.5 2C18.2712 2 20.1569 2 21.3284 3.17157C22.5 4.34315 22.5 5.22876 22.5 9" stroke="#FFFDFC" stroke-width="1.5" stroke-linecap="round"/>
<path d="M10.5 2C6.72876 2 4.84315 2 3.67157 3.17157C2.5 4.34315 2.5 5.22876 2.5 9" stroke="#FFFDFC" stroke-width="1.5" stroke-linecap="round"/>
<path d="M2.5 12H22.5" stroke="#FFFDFC" stroke-width="1.5" stroke-linecap="round"/>
</svg>
