<svg width="40" height="40" viewBox="0 0 40 40" fill="none" xmlns="http://www.w3.org/2000/svg">
<circle cx="20" cy="20" r="5" stroke="#FC3055" stroke-width="2"/>
<path opacity="0.5" d="M22.9423 3.58723C22.3298 3.3335 21.5532 3.3335 20.0001 3.3335C18.4469 3.3335 17.6704 3.3335 17.0578 3.58723C16.241 3.92554 15.5921 4.57446 15.2538 5.39122C15.0994 5.76406 15.0389 6.19766 15.0153 6.83015C14.9805 7.75963 14.5038 8.61999 13.6983 9.08505C12.8928 9.5501 11.9094 9.53273 11.0871 9.09809C10.5275 8.80233 10.1218 8.63787 9.72164 8.58519C8.84515 8.4698 7.95872 8.70732 7.25735 9.2455C6.73132 9.64913 6.34304 10.3217 5.56647 11.6667C4.7899 13.0118 4.40161 13.6843 4.31507 14.3417C4.19968 15.2182 4.4372 16.1046 4.97538 16.806C5.22102 17.1261 5.56625 17.3952 6.10206 17.7319C6.88975 18.2268 7.39656 19.0699 7.39651 20.0002C7.39646 20.9304 6.88966 21.7734 6.10205 22.2682C5.56616 22.605 5.22088 22.8741 4.97521 23.1942C4.43703 23.8956 4.19951 24.782 4.31491 25.6585C4.40145 26.3159 4.78974 26.9884 5.56631 28.3335C6.34287 29.6786 6.73116 30.3511 7.25719 30.7547C7.95855 31.2929 8.84499 31.5304 9.72148 31.415C10.1216 31.3623 10.5273 31.1979 11.0868 30.9022C11.9092 30.4675 12.8927 30.4501 13.6982 30.9152C14.5038 31.3803 14.9805 32.2407 15.0153 33.1703C15.0389 33.8027 15.0994 34.2363 15.2538 34.6091C15.5921 35.4259 16.241 36.0748 17.0578 36.4131C17.6704 36.6668 18.4469 36.6668 20.0001 36.6668C21.5532 36.6668 22.3298 36.6668 22.9423 36.4131C23.7591 36.0748 24.408 35.4259 24.7463 34.6091C24.9008 34.2362 24.9612 33.8026 24.9849 33.1701C25.0196 32.2407 25.4962 31.3803 26.3017 30.9152C27.1073 30.4501 28.0908 30.4674 28.9132 30.9021C29.4727 31.1978 29.8784 31.3622 30.2785 31.4149C31.155 31.5303 32.0414 31.2928 32.7428 30.7546C33.2688 30.351 33.6571 29.6784 34.4337 28.3334C35.2102 26.9883 35.5985 26.3158 35.6851 25.6584C35.8004 24.7819 35.5629 23.8955 35.0247 23.1941C34.7791 22.874 34.4338 22.6049 33.898 22.2682C33.1103 21.7733 32.6036 20.9302 32.6036 20C32.6037 19.0699 33.1104 18.227 33.898 17.7321C34.4339 17.3954 34.7792 17.1263 35.0249 16.8061C35.5631 16.1047 35.8006 15.2183 35.6852 14.3418C35.5987 13.6844 35.2104 13.0119 34.4338 11.6668C33.6572 10.3218 33.269 9.64924 32.7429 9.24561C32.0416 8.70743 31.1551 8.46991 30.2786 8.5853C29.8786 8.63798 29.4728 8.80242 28.9133 9.09816C28.0909 9.53282 27.1074 9.55019 26.3019 9.0851C25.4963 8.62001 25.0196 7.7596 24.9849 6.83006C24.9612 6.19762 24.9008 5.76405 24.7463 5.39122C24.408 4.57446 23.7591 3.92554 22.9423 3.58723Z" stroke="#FC3055" stroke-width="2"/>
</svg>
