<svg width="40" height="40" viewBox="0 0 40 40" fill="none" xmlns="http://www.w3.org/2000/svg">
<path d="M33.8528 21.079L34.7155 17.8592C35.7226 14.1007 36.2261 12.2215 35.8469 10.5952C35.5475 9.31111 34.874 8.14463 33.9117 7.24329C32.6929 6.10175 30.8136 5.59821 27.0552 4.59113C23.2967 3.58405 21.4175 3.08051 19.7912 3.45971C18.5071 3.75912 17.3406 4.43258 16.4393 5.39494C15.4619 6.43847 14.9522 7.96612 14.1938 10.7429C14.0664 11.2092 13.932 11.7108 13.7871 12.2513L13.7871 12.2515L12.9244 15.4712C11.9173 19.2297 11.4138 21.1089 11.793 22.7352C12.0924 24.0193 12.7658 25.1858 13.7282 26.0871C14.947 27.2287 16.8262 27.7322 20.5847 28.7393L20.5847 28.7393C23.9724 29.647 25.8333 30.1456 27.3584 29.9575C27.5253 29.9369 27.6882 29.9081 27.8487 29.8707C29.1328 29.5713 30.2993 28.8978 31.2006 27.9355C32.3422 26.7167 32.8457 24.8374 33.8528 21.079Z" stroke="#FC3055" stroke-width="2"/>
<path opacity="0.5" d="M27.3582 29.9569C27.0107 31.021 26.3997 31.9837 25.5782 32.7531C24.3594 33.8947 22.4802 34.3982 18.7217 35.4053C14.9632 36.4124 13.084 36.9159 11.4577 36.5367C10.1736 36.2373 9.00712 35.5638 8.10577 34.6015C6.96423 33.3827 6.46069 31.5034 5.45362 27.745L4.59089 24.5252C3.58381 20.7667 3.08027 18.8875 3.45947 17.2612C3.75887 15.9771 4.43234 14.8106 5.3947 13.9093C6.61351 12.7677 8.49274 12.2642 12.2512 11.2571C12.9623 11.0666 13.6061 10.8941 14.1936 10.7422" stroke="#FC3055" stroke-width="2"/>
</svg>
